<svg xmlns="http://www.w3.org/2000/svg" viewBox="0 0 78.13 78.13"><defs><style>.cls-1{fill:#fff;}</style></defs><title>logo_iconAsset 3</title><g id="Layer_2" data-name="Layer 2"><g id="Layer_1-2" data-name="Layer 1"><path class="cls-1" d="M39.39,17.25A21.47,21.47,0,1,0,54.73,53.74v6.45h6.13V38.71h0A21.47,21.47,0,0,0,39.39,17.25Zm0,36.81A15.34,15.34,0,1,1,54.73,38.72,15.34,15.34,0,0,1,39.4,54.06Z"/><path class="cls-1" d="M39.06,78.13A39.11,39.11,0,0,1,0,39.06H5.43A33.67,33.67,0,0,0,39.06,72.7Z"/><path class="cls-1" d="M78.13,39.06H72.7A33.67,33.67,0,0,0,39.06,5.43V0A39.11,39.11,0,0,1,78.13,39.06Z"/></g></g></svg>