<svg xmlns="http://www.w3.org/2000/svg" viewBox="0 0 21.19 15.28"><defs><style>.cls-1{fill:#fefefe;}.cls-2{fill:#ff3c3c;}</style></defs><title>mailAsset 2</title><g id="Layer_2" data-name="Layer 2"><g id="Layer_3" data-name="Layer 3"><path class="cls-1" d="M1.16,3.2,8.59,9.59l5.91-5.07a4,4,0,0,1-.29-1.34Z"/><path class="cls-1" d="M15,5.4,8.59,10.91,0,3.53V15.28H17.22V6.87A4,4,0,0,1,15,5.4Z"/><path class="cls-2" d="M18.19,0a3,3,0,0,0-2.87,2.18,3,3,0,0,0-.11.68s0,.09,0,.13,0,.12,0,.18a3,3,0,0,0,2,2.64,3,3,0,0,0,1,.17,3,3,0,0,0,0-6Z"/></g></g></svg>